<svg width="22" height="19" viewBox="0 0 22 19" fill="none" xmlns="http://www.w3.org/2000/svg">
<path d="M16 1H6C3.23858 1 1 2.8383 1 5.10596V13.3179C1 15.5855 3.23858 17.4238 6 17.4238H16C18.7614 17.4238 21 15.5855 21 13.3179V5.10596C21 2.8383 18.7614 1 16 1Z" stroke="white" stroke-width="2" stroke-linecap="round" stroke-linejoin="round"/>
<path d="M15.0001 8.69488C15.1235 9.37839 14.9813 10.0765 14.5938 10.6898C14.2063 11.3031 13.5932 11.8005 12.8417 12.1112C12.0901 12.4218 11.2385 12.53 10.4078 12.4202C9.57711 12.3104 8.80974 11.9883 8.21481 11.4997C7.61988 11.0111 7.22769 10.3809 7.09402 9.69867C6.96035 9.01646 7.09202 8.317 7.47028 7.69979C7.84855 7.08257 8.45416 6.57903 9.20097 6.26078C9.94778 5.94253 10.7978 5.82578 11.63 5.92714C12.479 6.03053 13.2649 6.35541 13.8717 6.8538C14.4786 7.3522 14.8742 7.99767 15.0001 8.69488Z" stroke="white" stroke-width="2" stroke-linecap="round" stroke-linejoin="round"/>
<path d="M16.5 4.6958H16.51" stroke="white" stroke-width="2" stroke-linecap="round" stroke-linejoin="round"/>
</svg>
